HIERARCHY
ROOT Hips
{
	OFFSET 0.00000 0.00000 0.00000
	CHANNELS 6 Xposition Yposition Zposition Zrotation Yrotation Xrotation 
	JOINT LHipJoint
	{
		OFFSET 0 0 0
		CHANNELS 3 Zrotation Yrotation Xrotation
		JOINT LeftUpLeg
		{
			OFFSET 1.43652 -1.81092 0.91346
			CHANNELS 3 Zrotation Yrotation Xrotation
			JOINT LeftLeg
			{
				OFFSET 2.45984 -6.75837 0.00000
				CHANNELS 3 Zrotation Yrotation Xrotation
				JOINT LeftFoot
				{
					OFFSET 2.63718 -7.24559 0.00000
					CHANNELS 3 Zrotation Yrotation Xrotation
					JOINT LeftToeBase
					{
						OFFSET 0.19690 -0.54098 2.12239
						CHANNELS 3 Zrotation Yrotation Xrotation
						End Site
						{
							OFFSET 0.00000 -0.00000 1.10116
						}
					}
				}
			}
		}
	}
	JOINT RHipJoint
	{
		OFFSET 0 0 0
		CHANNELS 3 Zrotation Yrotation Xrotation
		JOINT RightUpLeg
		{
			OFFSET -1.35116 -1.81092 0.91345
			CHANNELS 3 Zrotation Yrotation Xrotation
			JOINT RightLeg
			{
				OFFSET -2.55576 -7.02189 0.00000
				CHANNELS 3 Zrotation Yrotation Xrotation
				JOINT RightFoot
				{
					OFFSET -2.61938 -7.19669 0.00000
					CHANNELS 3 Zrotation Yrotation Xrotation
					JOINT RightToeBase
					{
						OFFSET -0.32509 -0.89318 2.23646
						CHANNELS 3 Zrotation Yrotation Xrotation
						End Site
						{
							OFFSET -0.00000 -0.00000 1.19625
						}
					}
				}
			}
		}
	}
	JOINT LowerBack
	{
		OFFSET 0 0 0
		CHANNELS 3 Zrotation Yrotation Xrotation
		JOINT Spine
		{
			OFFSET 0.05193 2.08077 -0.11958
			CHANNELS 3 Zrotation Yrotation Xrotation
			JOINT Spine1
			{
				OFFSET 0.04960 2.08447 0.01967
				CHANNELS 3 Zrotation Yrotation Xrotation
				JOINT Neck
				{
					OFFSET 0 0 0
					CHANNELS 3 Zrotation Yrotation Xrotation
					JOINT Neck1
					{
						OFFSET -0.10699 1.82066 0.27584
						CHANNELS 3 Zrotation Yrotation Xrotation
						JOINT Head
						{
							OFFSET 0.14949 1.84747 -0.32279
							CHANNELS 3 Zrotation Yrotation Xrotation
							End Site
							{
								OFFSET 0.04969 1.88916 -0.14562
							}
						}
					}
				}
				JOINT LeftShoulder
				{
					OFFSET 0 0 0
					CHANNELS 3 Zrotation Yrotation Xrotation
					JOINT LeftArm
					{
						OFFSET 3.73629 1.27211 -0.12847
						CHANNELS 3 Zrotation Yrotation Xrotation
						JOINT LeftForeArm
						{
							OFFSET 5.10995 -0.00000 0.00000
							CHANNELS 3 Zrotation Yrotation Xrotation
							JOINT LeftHand
							{
								OFFSET 3.21207 -0.00000 0.00000
								CHANNELS 3 Zrotation Yrotation Xrotation
								JOINT LeftFingerBase
								{
									OFFSET 0 0 0
									CHANNELS 3 Zrotation Yrotation Xrotation
									JOINT LeftHandIndex1
									{
										OFFSET 0.63349 -0.00000 0.00000
										CHANNELS 3 Zrotation Yrotation Xrotation
										End Site
										{
											OFFSET 0.51074 -0.00000 0.00000
										}
									}
								}
								JOINT LThumb
								{
									OFFSET 0 0 0
									CHANNELS 3 Zrotation Yrotation Xrotation
									End Site
									{
										OFFSET 0.51853 -0.00000 0.51853
									}
								}
							}
						}
					}
				}
				JOINT RightShoulder
				{
					OFFSET 0 0 0
					CHANNELS 3 Zrotation Yrotation Xrotation
					JOINT RightArm
					{
						OFFSET -3.70251 1.29541 -0.35354
						CHANNELS 3 Zrotation Yrotation Xrotation
						JOINT RightForeArm
						{
							OFFSET -5.25109 -0.00000 0.00000
							CHANNELS 3 Zrotation Yrotation Xrotation
							JOINT RightHand
							{
								OFFSET -3.28364 -0.00000 0.00000
								CHANNELS 3 Zrotation Yrotation Xrotation
								JOINT RightFingerBase
								{
									OFFSET 0 0 0
									CHANNELS 3 Zrotation Yrotation Xrotation
									JOINT RightHandIndex1
									{
										OFFSET -0.59974 -0.00000 0.00000
										CHANNELS 3 Zrotation Yrotation Xrotation
										End Site
										{
											OFFSET -0.48353 -0.00000 0.00000
										}
									}
								}
								JOINT RThumb
								{
									OFFSET 0 0 0
									CHANNELS 3 Zrotation Yrotation Xrotation
									End Site
									{
										OFFSET -0.49091 -0.00000 0.49091
									}
								}
							}
						}
					}
				}
			}
		}
	}
}
MOTION
Frames: 9
Frame Time: 0.0454545
0.00 0.00 0.00 3.7676 -3.1043 25.4329 0.0000 0.0000 0.0000 -7.4948 -24.4020 -59.2759 2.8097 10.3805 30.2178 -0.5145 -13.8122 11.2019 0.0474 -1.4055 -3.8654 0.0000 0.0000 0.0000 15.8376 -6.8774 -8.9743 -2.7904 -10.3478 30.1106 -0.4969 -18.6861 -30.1363 -0.0122 -0.7136 1.9612 9.3970 7.1651 23.4835 4.6494 12.1151 2.6333 -3.6826 5.4066 -9.1278 -13.0471 -10.3679 -8.4001 6.7661 -12.5995 -13.5590 3.8529 -5.9136 -1.5241 0.0000 0.0000 0.0000 -77.6089 13.3677 38.9372 57.9653 -55.7429 -32.6536 -0.0000 0.0000 -25.3038 21.3403 18.0865 6.9157 -7.1250 0.0000 -0.0000 -6.6124 49.1882 -0.6857 0.0000 0.0000 0.0000 90.8054 56.2938 77.9467 -40.5705 48.4043 -18.8648 0.0000 -0.0000 -23.8918 -30.0957 -1.7708 1.0261 7.1250 -0.0000 -0.0000 -2.8304 -32.0181 -0.9002
0.00 0.00 0.00 0.8196 -4.2404 21.0186 0.0000 0.0000 0.0000 -2.3758 -23.1863 -56.2567 3.1075 10.8671 31.8330 -0.1861 -10.0934 10.7413 0.2182 -3.0070 -8.2984 0.0000 0.0000 0.0000 13.5602 -5.6787 -11.7056 -3.0304 -10.7441 31.4215 -2.1402 -13.8122 -35.4006 -0.1526 2.5171 -6.9370 8.2606 6.2272 23.0927 4.5019 10.5829 2.6536 -2.7990 4.7381 -9.2319 -13.2098 -9.7802 -9.6914 8.3451 -11.4979 -12.5778 4.3016 -5.3781 -1.0012 0.0000 0.0000 0.0000 -81.9127 9.1986 39.0612 63.5492 -57.1838 -37.3095 -0.0000 0.0000 -29.9619 13.6317 20.1731 4.7806 -7.1250 0.0000 -0.0000 -14.6980 50.1083 -1.8865 0.0000 0.0000 0.0000 87.4550 32.3793 85.4433 -45.6315 51.0741 -22.7289 0.0000 -0.0000 -16.6592 -20.5513 7.3150 -2.7329 7.1250 -0.0000 -0.0000 4.5601 -22.1820 2.5087
0.00 0.00 0.00 -5.0051 -6.9860 12.8605 0.0000 0.0000 0.0000 7.9638 -22.0769 -47.5163 1.9834 8.8314 25.2694 1.3949 3.0078 21.5477 0.2160 -2.9919 -8.2562 0.0000 0.0000 0.0000 20.9562 -4.8679 -11.3006 -4.2623 -12.5015 37.5300 -3.1653 -6.3822 -36.2658 -0.8995 6.0444 -16.9132 8.6785 5.8610 20.5368 4.1852 9.8983 2.8131 -2.8603 4.5317 -7.6103 -12.7304 -9.5894 -10.7048 11.2624 -11.1815 -7.9683 4.9143 -5.2681 0.6991 -0.0000 0.0000 0.0000 -89.6306 10.6390 44.6389 80.0656 -59.6238 -51.4075 -0.0000 0.0000 -22.1613 23.7283 27.0292 11.2964 -7.1250 0.0000 -0.0000 -7.3726 58.9581 -2.5236 -0.0000 0.0000 0.0000 87.4970 11.6118 92.4394 -54.1327 54.5321 -29.5083 0.0000 -0.0000 -9.9988 -28.1811 6.4538 -3.4463 7.1250 -0.0000 -0.0000 -1.0522 -22.6673 -0.5655
0.00 0.00 0.00 -2.4478 -10.4533 6.8971 0.0000 0.0000 0.0000 -5.2500 -12.8929 -38.6771 4.4122 12.6896 38.2174 0.0197 -0.8785 -2.4900 0.0020 -0.2908 -0.7991 0.0000 0.0000 0.0000 21.1899 -0.9335 -17.3682 -5.8389 -14.2704 44.3316 -2.3324 -6.7569 -31.8694 -0.1308 2.3311 -6.4215 6.7624 3.6649 16.2555 3.5990 6.2599 2.0348 -1.2931 2.8982 -6.5942 -11.7105 -8.2371 -15.2362 11.3313 -9.5252 0.7585 4.5867 -4.2921 3.7825 -0.0000 -0.0000 0.0000 -89.1371 4.8582 56.4408 79.0692 -59.5437 -50.5481 -0.0000 0.0000 -15.6120 23.4594 24.1092 10.0522 -7.1250 0.0000 -0.0000 -6.4041 55.8703 -1.7130 -0.0000 -0.0000 0.0000 79.5269 15.6386 83.4887 -55.5342 54.9975 -30.6531 0.0000 -0.0000 -10.7564 -30.3748 9.5957 -5.5801 7.1250 -0.0000 -0.0000 -2.4111 -18.8981 -1.5015
0.00 0.00 0.00 1.2177 -27.9164 5.1427 0.0000 0.0000 0.0000 -23.5379 -0.2991 -11.5086 2.5960 10.0105 29.0106 1.2487 -3.8416 -20.2036 0.0024 0.3146 0.8644 0.0000 0.0000 0.0000 9.3572 10.1948 -32.5056 -7.0920 -15.4089 49.2215 -1.7142 2.1720 -24.1663 -0.0043 0.4249 -1.1675 -3.0232 0.2268 7.9764 1.9281 0.1059 -0.2113 3.7008 0.1467 -4.7093 -7.0319 -0.1303 -17.4724 9.2113 0.1679 10.3894 4.1292 0.5447 5.9841 -0.0000 -0.0000 0.0000 -93.2616 -12.3975 78.1843 52.0304 -53.7823 -27.8041 -0.0000 0.0000 -37.3490 40.4333 30.0131 23.0838 -7.1250 0.0000 -0.0000 13.2190 66.7305 6.9727 -0.0000 -0.0000 0.0000 84.0874 15.4555 67.5495 -40.4382 48.3274 -18.7659 0.0000 -0.0000 -6.1749 -37.7337 11.1043 -8.4767 7.1250 -0.0000 -0.0000 -7.3329 -16.1169 -5.0511
0.00 0.00 0.00 -3.6744 -40.0379 6.6253 0.0000 0.0000 0.0000 -17.5698 3.7433 -27.8147 5.5977 14.0268 43.3451 0.9606 1.4854 -19.1091 0.0170 -0.8423 -2.3151 0.0000 0.0000 0.0000 23.6165 5.5469 -10.7932 -4.1192 -12.3174 36.8642 -2.6329 8.8685 -29.2430 -0.1753 -2.6973 7.4372 0.9936 1.5671 2.4852 1.1914 2.1724 -2.5491 0.5422 1.0673 -4.0278 -5.9025 1.1776 -16.7718 14.5008 -0.0206 18.3766 5.9581 1.0560 8.4802 0.0000 -0.0000 0.0000 -93.6687 -24.8617 63.2024 76.0234 -59.2489 -47.9265 -0.0000 0.0000 -28.0246 48.2430 22.0499 22.8074 -7.1250 0.0000 -0.0000 23.5703 59.7092 8.7583 0.0000 -0.0000 0.0000 83.1112 48.1921 79.6618 -45.7262 51.1193 -22.8026 0.0000 -0.0000 -1.1478 -35.6491 11.3981 -8.0675 7.1250 -0.0000 -0.0000 -5.8736 -16.0947 -4.0366
0.00 0.00 0.00 -6.1772 -38.7134 4.8430 0.0000 0.0000 0.0000 -17.1916 8.9168 -40.1398 6.1177 14.5415 45.4525 1.0254 3.0453 -20.4544 0.2570 -3.2617 -9.0083 0.0000 0.0000 0.0000 25.6489 1.7544 -6.7214 -3.3645 -11.2629 33.1716 -2.6784 7.1969 -29.6074 -0.0084 0.5932 -1.6300 4.5039 -0.4006 4.7799 3.7533 -0.1296 -1.4138 1.3721 -0.1429 -4.1531 -5.2842 2.2270 -14.9019 12.3110 1.3543 21.9820 5.3389 1.5053 9.2081 -0.0000 0.0000 0.0000 -75.8768 -51.8999 47.1138 44.5984 -50.5702 -21.9281 -0.0000 0.0000 -8.3406 40.4338 11.8658 9.9376 -7.1250 0.0000 -0.0000 12.3975 45.0435 0.0135 -0.0000 0.0000 0.0000 13.1389 68.3059 18.0111 -61.0228 56.5764 -35.1935 0.0000 -0.0000 -12.1246 -32.7285 7.6779 -4.9078 7.1250 -0.0000 -0.0000 -4.2611 -20.8864 -2.4687
0.00 0.00 0.00 -5.4562 -38.9200 4.1649 0.0000 0.0000 0.0000 -15.7874 6.0309 -41.2456 4.2084 12.4327 37.2803 0.9445 3.5668 -19.9764 0.4093 -4.1068 -11.3773 0.0000 0.0000 0.0000 24.9809 2.6986 -4.2982 -2.9165 -10.5587 30.8055 -2.3791 5.4451 -28.0096 -0.0017 -0.2691 0.7393 4.4871 -0.9257 5.3559 4.2890 -0.7985 -1.0182 1.9997 -0.4672 -4.0664 -4.8633 2.8459 -14.2311 11.4726 2.2837 22.1074 5.0517 1.8690 9.0474 0.0000 0.0000 0.0000 -53.4860 -56.6356 31.3323 29.7145 -40.6474 -11.2232 -0.0000 0.0000 -0.6243 36.1788 10.4317 7.5430 -7.1250 0.0000 -0.0000 8.2856 42.6783 -0.4782 0.0000 0.0000 0.0000 -20.0757 59.4637 -12.3440 -64.0611 57.2984 -37.7400 0.0000 -0.0000 -16.4511 -31.4500 6.3596 -3.8757 7.1250 -0.0000 -0.0000 -3.4511 -22.5406 -1.8678
0.00 0.00 0.00 7.0184 13.6630 30.1007 0.0000 0.0000 0.0000 -28.8363 -25.9159 -62.7454 2.9019 10.5345 30.7257 -1.5195 -23.9267 21.1757 1.0739 6.5873 18.4983 0.0000 0.0000 0.0000 27.1293 -9.4529 -5.1281 -2.7861 -10.3404 30.0863 1.2211 -19.1297 -8.1889 -0.0984 -2.0227 5.5684 15.1446 7.5870 27.3256 6.7697 15.1423 2.2048 -5.6900 6.3968 -10.5206 -12.6897 -14.6436 -5.6476 11.6473 -18.2418 -17.2413 5.1945 -8.9474 -2.0408 -0.0000 -0.0000 0.0000 -91.2769 15.4804 22.3428 39.3200 -47.6618 -17.9350 -0.0000 0.0000 -14.7809 28.2438 9.4555 5.0432 -7.1250 0.0000 -0.0000 1.1360 40.6828 -0.1210 -0.0000 -0.0000 0.0000 -47.0428 59.0648 -86.8092 -11.3547 18.8298 -1.8888 0.0000 -0.0000 -27.5050 -21.5946 -5.9576 2.3526 7.1250 -0.0000 -0.0000 4.3171 -36.3546 0.9199
